<?xml version="1.0" encoding="UTF-8" standalone="no"?>
<!-- Created with Inkscape (http://www.inkscape.org/) -->

<svg
   xmlns:dc="http://purl.org/dc/elements/1.1/"
   xmlns:cc="http://creativecommons.org/ns#"
   xmlns:rdf="http://www.w3.org/1999/02/22-rdf-syntax-ns#"
   xmlns:svg="http://www.w3.org/2000/svg"
   xmlns="http://www.w3.org/2000/svg"
   xmlns:sodipodi="http://sodipodi.sourceforge.net/DTD/sodipodi-0.dtd"
   xmlns:inkscape="http://www.inkscape.org/namespaces/inkscape"
   width="500"
   height="500"
   viewBox="0 0 132.29166 132.29167"
   version="1.1"
   id="svg8"
   inkscape:export-filename="C:\Users\Tyler\Documents\GitHub\my-site\src\assets\purple-aether-icon.png"
   inkscape:export-xdpi="100"
   inkscape:export-ydpi="100"
   inkscape:version="0.92.1 r15371"
   sodipodi:docname="aether-icon.svg">
  <defs
     id="defs2">
    <filter
       inkscape:collect="always"
       style="color-interpolation-filters:sRGB"
       id="filter6514"
       x="-0.18269651"
       width="1.365393"
       y="-0.18210445"
       height="1.3642089">
      <feGaussianBlur
         inkscape:collect="always"
         stdDeviation="2.3499001"
         id="feGaussianBlur6516" />
    </filter>
  </defs>
  <sodipodi:namedview
     id="base"
     pagecolor="#ffffff"
     bordercolor="#666666"
     borderopacity="1.0"
     inkscape:pageopacity="0.0"
     inkscape:pageshadow="2"
     inkscape:zoom="1.4"
     inkscape:cx="260.7807"
     inkscape:cy="279.00619"
     inkscape:document-units="mm"
     inkscape:current-layer="g6550"
     showgrid="false"
     units="px"
     inkscape:snap-global="false"
     inkscape:window-width="1278"
     inkscape:window-height="1368"
     inkscape:window-x="1273"
     inkscape:window-y="0"
     inkscape:window-maximized="0" />
  <metadata
     id="metadata5">
    <rdf:RDF>
      <cc:Work
         rdf:about="">
        <dc:format>image/svg+xml</dc:format>
        <dc:type
           rdf:resource="http://purl.org/dc/dcmitype/StillImage" />
        <dc:title />
      </cc:Work>
    </rdf:RDF>
  </metadata>
  <g
     inkscape:label="Aether Icon"
     inkscape:groupmode="layer"
     id="layer1"
     transform="translate(0,-164.70832)">
    <g
       id="g6550"
       transform="translate(-0.52151783,-0.09333508)">
      <rect
         inkscape:label="background"
         style="display:none;opacity:1;fill:#bababa;fill-opacity:1;stroke:none;stroke-width:5.29166651;stroke-linecap:round;stroke-linejoin:miter;stroke-miterlimit:4;stroke-dasharray:none;stroke-dashoffset:0;stroke-opacity:1;paint-order:markers fill stroke"
         id="rect5141"
         width="80"
         height="80"
         x="-156.46637"
         y="169.63274"
         rx="0"
         ry="0"
         transform="rotate(-45)" />
      <path
         inkscape:label="middle-x"
         inkscape:connector-curvature="0"
         id="path5173"
         d="m 50.712604,220.63888 c 0,0 5.296247,-5.39004 5.417305,-5.23779 0.121055,0.15227 10.138532,12.36361 10.138532,12.36361 l 10.047738,-12.39406 5.265982,5.51186 -12.317559,9.95788 12.287297,10.11015 -5.23572,5.35958 -10.017473,-12.48541 -10.138533,12.51586 -5.447569,-5.42049 12.408351,-9.98834 z"
         style="display:none;opacity:1;fill:#ffffff;fill-opacity:1;stroke:none;stroke-width:0.26499999;stroke-linecap:butt;stroke-linejoin:miter;stroke-miterlimit:4;stroke-dasharray:none;stroke-opacity:1;filter:url(#filter6514)" />
      <g
         inkscape:label="inside-arrows"
         id="g5694">
        <g
           id="g4515"
           transform="translate(0.06055575,-2.2979128)"
           inkscape:label="bottom-arrow">
          <path
             inkscape:connector-curvature="0"
             id="path5153"
             transform="matrix(0.26458333,0,0,0.26458333,-0.13315923,165.1636)"
             d="m 250.375,273.03711 -19.20508,23.97656 -19.20508,23.97461 28.24414,0.0312 -0.20703,135.99414 19.9961,0.0312 0.20898,-136.0039 28.37695,0.0312 -19.10546,-24.01758 z"
             style="display:none;opacity:1;fill:#890085;fill-opacity:1;stroke:none;stroke-width:10;stroke-linecap:round;stroke-linejoin:miter;stroke-miterlimit:4;stroke-dasharray:none;stroke-dashoffset:0;stroke-opacity:1;paint-order:markers fill stroke" />
          <path
             style="opacity:1;fill:#000000;fill-opacity:1;stroke:none;stroke-width:10;stroke-linecap:round;stroke-linejoin:miter;stroke-miterlimit:4;stroke-dasharray:none;stroke-dashoffset:0;stroke-opacity:1;paint-order:markers fill stroke"
             d="m 250.375,273.03711 -19.20508,23.97656 -19.20508,23.97461 28.24414,0.0312 -0.20703,135.99414 19.9961,0.0312 0.20898,-136.0039 28.37695,0.0312 -19.10546,-24.01758 z"
             transform="matrix(0.26458333,0,0,0.26458333,-0.13315923,165.1636)"
             id="path4531"
             inkscape:connector-curvature="0" />
        </g>
        <g
           transform="rotate(-90,64.950239,231.98919)"
           id="g5159"
           style="fill:#890085;fill-opacity:1"
           inkscape:label="right-arrow">
          <path
             style="display:none;opacity:1;fill:#890085;fill-opacity:1;stroke:none;stroke-width:10;stroke-linecap:round;stroke-linejoin:miter;stroke-miterlimit:4;stroke-dasharray:none;stroke-dashoffset:0;stroke-opacity:1;paint-order:markers fill stroke"
             d="m 250.375,273.03711 -19.20508,23.97656 -19.20508,23.97461 28.24414,0.0312 -0.20703,135.99414 19.9961,0.0312 0.20898,-136.0039 28.37695,0.0312 -19.10546,-24.01758 z"
             transform="matrix(0.26458333,0,0,0.26458333,-0.13315923,165.1636)"
             id="path5157"
             inkscape:connector-curvature="0" />
          <path
             inkscape:connector-curvature="0"
             id="path4529"
             transform="matrix(0.26458333,0,0,0.26458333,-0.13315923,165.1636)"
             d="m 250.375,273.03711 -19.20508,23.97656 -19.20508,23.97461 28.24414,0.0312 -0.20703,135.99414 19.9961,0.0312 0.20898,-136.0039 28.37695,0.0312 -19.10546,-24.01758 z"
             style="opacity:1;fill:#000000;fill-opacity:1;stroke:none;stroke-width:10;stroke-linecap:round;stroke-linejoin:miter;stroke-miterlimit:4;stroke-dasharray:none;stroke-dashoffset:0;stroke-opacity:1;paint-order:markers fill stroke" />
        </g>
        <g
           id="g5165"
           transform="rotate(-180,66.115555,231.96128)"
           style="fill:#890085;fill-opacity:1"
           inkscape:label="top-arrow">
          <path
             inkscape:connector-curvature="0"
             id="path5163"
             transform="matrix(0.26458333,0,0,0.26458333,-0.13315923,165.1636)"
             d="m 250.375,273.03711 -19.20508,23.97656 -19.20508,23.97461 28.24414,0.0312 -0.20703,135.99414 19.9961,0.0312 0.20898,-136.0039 28.37695,0.0312 -19.10546,-24.01758 z"
             style="display:none;opacity:1;fill:#890085;fill-opacity:1;stroke:none;stroke-width:10;stroke-linecap:round;stroke-linejoin:miter;stroke-miterlimit:4;stroke-dasharray:none;stroke-dashoffset:0;stroke-opacity:1;paint-order:markers fill stroke" />
          <path
             style="opacity:1;fill:#000000;fill-opacity:1;stroke:none;stroke-width:10;stroke-linecap:round;stroke-linejoin:miter;stroke-miterlimit:4;stroke-dasharray:none;stroke-dashoffset:0;stroke-opacity:1;paint-order:markers fill stroke"
             d="m 250.375,273.03711 -19.20508,23.97656 -19.20508,23.97461 28.24414,0.0312 -0.20703,135.99414 19.9961,0.0312 0.20898,-136.0039 28.37695,0.0312 -19.10546,-24.01758 z"
             transform="matrix(0.26458333,0,0,0.26458333,-0.13315923,165.1636)"
             id="path4527"
             inkscape:connector-curvature="0" />
        </g>
        <g
           id="g5171"
           transform="rotate(90,67.140874,231.90975)"
           style="fill:#890085;fill-opacity:1"
           inkscape:label="left-arrow">
          <path
             inkscape:connector-curvature="0"
             id="path5169"
             transform="matrix(0.26458333,0,0,0.26458333,-0.13315923,165.1636)"
             d="m 250.375,273.03711 -19.20508,23.97656 -19.20508,23.97461 28.24414,0.0312 -0.20703,135.99414 19.9961,0.0312 0.20898,-136.0039 28.37695,0.0312 -19.10546,-24.01758 z"
             style="display:none;opacity:1;fill:#890085;fill-opacity:1;stroke:none;stroke-width:10;stroke-linecap:round;stroke-linejoin:miter;stroke-miterlimit:4;stroke-dasharray:none;stroke-dashoffset:0;stroke-opacity:1;paint-order:markers fill stroke" />
          <path
             style="opacity:1;fill:#000000;fill-opacity:1;stroke:none;stroke-width:10;stroke-linecap:round;stroke-linejoin:miter;stroke-miterlimit:4;stroke-dasharray:none;stroke-dashoffset:0;stroke-opacity:1;paint-order:markers fill stroke"
             d="m 250.375,273.03711 -19.20508,23.97656 -19.20508,23.97461 28.24414,0.0312 -0.20703,135.99414 19.9961,0.0312 0.20898,-136.0039 28.37695,0.0312 -19.10546,-24.01758 z"
             transform="matrix(0.26458333,0,0,0.26458333,-0.13315923,165.1636)"
             id="path4525"
             inkscape:connector-curvature="0" />
        </g>
      </g>
      <g
         style="display:none"
         inkscape:label="outside-arrows"
         id="g5704">
        <g
           inkscape:label=" bottom-right-arrow"
           style="fill:#890085;fill-opacity:1"
           transform="rotate(90,122.33203,229.37069)"
           id="g5672">
          <path
             style="opacity:1;fill:#890085;fill-opacity:1;stroke:none;stroke-width:2.64583325;stroke-linecap:round;stroke-linejoin:miter;stroke-miterlimit:4;stroke-dasharray:none;stroke-dashoffset:0;stroke-opacity:1;paint-order:markers fill stroke"
             d="m 68.615709,231.965 0.89269,8.0788 0.892325,8.07843 5.289996,-5.27832 16.423973,16.50144 3.746881,-3.73521 -16.425435,-16.50363 5.314843,-5.30317 -8.067832,-0.919 z"
             id="path5670"
             inkscape:connector-curvature="0"
             sodipodi:nodetypes="cccccccccc" />
        </g>
        <g
           id="g5676"
           transform="translate(-58.242849,-54.506987)"
           style="fill:#890085;fill-opacity:1"
           inkscape:label="top-right-arrow">
          <path
             sodipodi:nodetypes="cccccccccc"
             inkscape:connector-curvature="0"
             id="path5674"
             d="m 68.615709,231.965 0.89269,8.0788 0.892325,8.07843 5.289996,-5.27832 16.423973,16.50144 3.746881,-3.73521 -16.425435,-16.50363 5.314843,-5.30317 -8.067832,-0.919 z"
             style="opacity:1;fill:#890085;fill-opacity:1;stroke:none;stroke-width:2.64583325;stroke-linecap:round;stroke-linejoin:miter;stroke-miterlimit:4;stroke-dasharray:none;stroke-dashoffset:0;stroke-opacity:1;paint-order:markers fill stroke" />
        </g>
        <g
           inkscape:label="bottom-left-arrow"
           style="fill:#890085;fill-opacity:1"
           transform="rotate(-90,67.023231,287.34628)"
           id="g5680">
          <path
             style="opacity:1;fill:#890085;fill-opacity:1;stroke:none;stroke-width:2.64583325;stroke-linecap:round;stroke-linejoin:miter;stroke-miterlimit:4;stroke-dasharray:none;stroke-dashoffset:0;stroke-opacity:1;paint-order:markers fill stroke"
             d="m 68.615709,231.965 0.89269,8.0788 0.892325,8.07843 5.289996,-5.27832 16.423973,16.50144 3.746881,-3.73521 -16.425435,-16.50363 5.314843,-5.30317 -8.067832,-0.919 z"
             id="path5678"
             inkscape:connector-curvature="0"
             sodipodi:nodetypes="cccccccccc" />
        </g>
        <g
           id="g5684"
           transform="rotate(-180,95.21216,258.09122)"
           style="fill:#890085;fill-opacity:1"
           inkscape:label="bottom-right-arrow">
          <path
             sodipodi:nodetypes="cccccccccc"
             inkscape:connector-curvature="0"
             id="path5682"
             d="m 68.615709,231.965 0.89269,8.0788 0.892325,8.07843 5.289996,-5.27832 16.423973,16.50144 3.746881,-3.73521 -16.425435,-16.50363 5.314843,-5.30317 -8.067832,-0.919 z"
             style="opacity:1;fill:#890085;fill-opacity:1;stroke:none;stroke-width:2.64583325;stroke-linecap:round;stroke-linejoin:miter;stroke-miterlimit:4;stroke-dasharray:none;stroke-dashoffset:0;stroke-opacity:1;paint-order:markers fill stroke" />
        </g>
      </g>
      <rect
         inkscape:label="diamond"
         transform="rotate(-45)"
         ry="0"
         rx="0"
         y="170.01071"
         x="-156.46637"
         height="80"
         width="80"
         id="rect4485"
         style="opacity:1;fill:none;fill-opacity:1;stroke:#000000;stroke-width:5.29166651;stroke-linecap:round;stroke-linejoin:miter;stroke-miterlimit:4;stroke-dasharray:none;stroke-dashoffset:0;stroke-opacity:1;paint-order:markers fill stroke" />
      <g
         style="display:inline"
         inkscape:label="fringes"
         id="g5656">
        <g
           style="display:inline"
           inkscape:label="ccw-fringe"
           id="g5662">
          <path
             sodipodi:nodetypes="cccc"
             inkscape:connector-curvature="0"
             id="path5631"
             d="m 79.825053,280.57473 c 2.287753,2.28775 3.421991,5.38102 2.975021,8.11341 -0.446851,2.73245 -2.406938,4.68845 -5.141462,5.13015 -2.734255,0.4419 -5.826689,-0.69743 -8.111222,-2.98837"
             style="display:inline;opacity:1;fill:none;fill-opacity:1;stroke:#000000;stroke-width:5.29166651;stroke-linecap:square;stroke-linejoin:miter;stroke-miterlimit:4;stroke-dasharray:none;stroke-dashoffset:0;stroke-opacity:1;paint-order:markers fill stroke"
             inkscape:label="path5631" />
          <path
             style="display:inline;opacity:1;fill:none;fill-opacity:1;stroke:#000000;stroke-width:5.29166651;stroke-linecap:square;stroke-linejoin:miter;stroke-miterlimit:4;stroke-dasharray:none;stroke-dashoffset:0;stroke-opacity:1;paint-order:markers fill stroke"
             d="m 115.94491,217.09336 c 2.28775,-2.28776 5.38102,-3.42199 8.11341,-2.97502 2.73245,0.44685 4.68845,2.40693 5.13015,5.14146 0.4419,2.73425 -0.69743,5.82669 -2.98837,8.11122"
             id="path5634"
             inkscape:connector-curvature="0"
             sodipodi:nodetypes="cccc" />
          <path
             sodipodi:nodetypes="cccc"
             inkscape:connector-curvature="0"
             id="path5636"
             d="m 52.926701,181.59307 c -2.28776,-2.28775 -3.42199,-5.38102 -2.97502,-8.11341 0.44685,-2.73245 2.40693,-4.68845 5.14146,-5.13015 2.73425,-0.4419 5.82669,0.69743 8.11122,2.98837"
             style="display:inline;opacity:1;fill:none;fill-opacity:1;stroke:#000000;stroke-width:5.29166651;stroke-linecap:square;stroke-linejoin:miter;stroke-miterlimit:4;stroke-dasharray:none;stroke-dashoffset:0;stroke-opacity:1;paint-order:markers fill stroke" />
          <path
             style="display:inline;opacity:1;fill:none;fill-opacity:1;stroke:#000000;stroke-width:5.29166651;stroke-linecap:square;stroke-linejoin:miter;stroke-miterlimit:4;stroke-dasharray:none;stroke-dashoffset:0;stroke-opacity:1;paint-order:markers fill stroke"
             d="m 17.495579,243.4489 c -2.28775,2.28776 -5.38102,3.42199 -8.1134098,2.97502 -2.73245,-0.44685 -4.68845,-2.40693 -5.13015,-5.14146 -0.4419,-2.73425 0.69743,-5.82669 2.98837,-8.11122"
             id="path5638"
             inkscape:connector-curvature="0"
             sodipodi:nodetypes="cccc" />
        </g>
        <g
           style="display:inline"
           inkscape:label="cw-fringe"
           id="g5668">
          <path
             sodipodi:nodetypes="cccc"
             inkscape:connector-curvature="0"
             id="path5640"
             d="m 62.122185,290.80157 c -2.28775,2.28776 -5.38102,3.42199 -8.11341,2.97502 -2.73245,-0.44685 -4.68845,-2.40693 -5.13015,-5.14146 -0.4419,-2.73425 0.69743,-5.82669 2.98837,-8.11122"
             style="opacity:1;fill:none;fill-opacity:1;stroke:#000000;stroke-width:5.29166651;stroke-linecap:square;stroke-linejoin:miter;stroke-miterlimit:4;stroke-dasharray:none;stroke-dashoffset:0;stroke-opacity:1;paint-order:markers fill stroke" />
          <path
             style="opacity:1;fill:none;fill-opacity:1;stroke:#000000;stroke-width:5.29166651;stroke-linecap:square;stroke-linejoin:miter;stroke-miterlimit:4;stroke-dasharray:none;stroke-dashoffset:0;stroke-opacity:1;paint-order:markers fill stroke"
             d="m 125.89615,234.29197 c 2.28776,2.28775 3.42199,5.38102 2.97502,8.11341 -0.44685,2.73245 -2.40693,4.68845 -5.14146,5.13015 -2.73425,0.4419 -5.82669,-0.69743 -8.11122,-2.98837"
             id="path5642"
             inkscape:connector-curvature="0"
             sodipodi:nodetypes="cccc" />
          <path
             sodipodi:nodetypes="cccc"
             inkscape:connector-curvature="0"
             id="path5644"
             d="m 69.398415,171.05397 c 2.28775,-2.28776 5.381024,-3.42199 8.113414,-2.97502 2.73245,0.44685 4.68845,2.40693 5.13015,5.14146 0.4419,2.73425 -0.69743,5.82669 -2.98837,8.11122"
             style="opacity:1;fill:none;fill-opacity:1;stroke:#000000;stroke-width:5.29166651;stroke-linecap:square;stroke-linejoin:miter;stroke-miterlimit:4;stroke-dasharray:none;stroke-dashoffset:0;stroke-opacity:1;paint-order:markers fill stroke" />
          <path
             style="opacity:1;fill:none;fill-opacity:1;stroke:#000000;stroke-width:5.29166651;stroke-linecap:square;stroke-linejoin:miter;stroke-miterlimit:4;stroke-dasharray:none;stroke-dashoffset:0;stroke-opacity:1;paint-order:markers fill stroke"
             d="m 7.1235155,228.53572 c -2.28776,-2.28775 -3.4219901,-5.38103 -2.9750201,-8.11342 0.4468501,-2.73245 2.4069301,-4.68845 5.1414601,-5.13015 2.7342495,-0.4419 5.8266895,0.69743 8.1112195,2.98837"
             id="path5646"
             inkscape:connector-curvature="0"
             sodipodi:nodetypes="cccc" />
        </g>
      </g>
    </g>
  </g>
</svg>
