<?xml version="1.0" encoding="UTF-8"?>
<!-- Created with Inkscape (http://www.inkscape.org/) -->
<svg width="500" height="500" version="1.1" viewBox="0 0 132.29166 132.29167" xmlns="http://www.w3.org/2000/svg" xmlns:cc="http://creativecommons.org/ns#" xmlns:dc="http://purl.org/dc/elements/1.1/" xmlns:rdf="http://www.w3.org/1999/02/22-rdf-syntax-ns#">
 <metadata>
  <rdf:RDF>
   <cc:Work rdf:about="">
    <dc:format>image/svg+xml</dc:format>
    <dc:type rdf:resource="http://purl.org/dc/dcmitype/StillImage"/>
    <dc:title/>
   </cc:Work>
  </rdf:RDF>
 </metadata>
 <g transform="translate(0 -164.71)">
  <path d="m70.514 230.66 6.3438 5.0813 6.3433 5.0814 0.0083-7.4729 35.982 0.0548 8e-3 -5.2906-35.984-0.0553 0.0083-7.5081-6.3547 5.055zm-4.9856-4.3862 5.0813-6.3438 5.0814-6.3433-7.4729-8e-3 0.0548-35.982-5.2906-8e-3 -0.0553 35.984-7.5081-8e-3 5.055 6.3546zm-4.1596 4.4777-6.3438-5.0813-6.3433-5.0814-8e-3 7.4729-35.982-0.0548-8e-3 5.2906 35.984 0.0553-8e-3 7.5081 6.3546-5.055zm4.3395 4.337-5.0813 6.3438-5.0813 6.3433 7.4729 8e-3 -0.05478 35.982 5.2906 8e-3 0.05529-35.984 7.5081 8e-3 -5.055-6.3546zm55.59-59.47-8.0788 0.89269-8.0784 0.89233 5.2783 5.29-16.501 16.424 3.7352 3.7469 16.504-16.425 5.3032 5.3148 0.919-8.0678zm-110.91 109.83 8.0788-0.89269 8.0784-0.89233-5.2783-5.29 16.501-16.424-3.7352-3.7469-16.504 16.425-5.3032-5.3148-0.919 8.0678zm110.85 0.25622-0.89269-8.0788-0.89233-8.0784-5.29 5.2783-16.424-16.501-3.7469 3.7352 16.425 16.504-5.3148 5.3032 8.0678 0.919zm-110.21-109.97l0.89269 8.0788 0.89232 8.0784 5.29-5.2783 16.424 16.501 3.7469-3.7352-16.425-16.504 5.3148-5.3032-8.0678-0.919zm-5.7054 55.018 1.8713 1.8713 58.44 58.44 60.31-60.31-60.311-60.311zm7.484 1e-3 52.827-52.827 52.826 52.826-52.827 52.827zm-1.6402-18.243c-0.93136-0.1007-1.8746-0.0832-2.8125 0.0684-3.7519 0.60604-6.7168 3.5662-7.3301 7.3164-0.61345 3.7501 0.89305 7.5884 3.7148 10.41l1.8711 1.8711 3.7422-3.7422-1.8711-1.8691c-1.7537-1.7537-2.5149-4.1018-2.2344-5.8164 0.28042-1.7147 1.234-2.668 2.9512-2.9453h0.00195c1.717-0.27749 4.0632 0.48797 5.8145 2.2441l1.8691 1.875 3.7461-3.7363-1.8672-1.875c-2.1134-2.1193-4.8016-3.4987-7.5957-3.8008zm63.447-47.219c-2.7942 0.29729-5.4833 1.6747-7.5996 3.791l-1.8711 1.8711 3.7422 3.7422 1.8711-1.8711c1.7537-1.7537 4.0998-2.5149 5.8145-2.2344 1.7147 0.28042 2.668 1.234 2.9453 2.9512 0.27749 1.717-0.48797 4.0652-2.2441 5.8164l-1.873 1.8672 3.7363 3.748 1.873-1.8691c2.8257-2.8178 4.3387-6.6547 3.7324-10.406-0.60604-3.7519-3.5643-6.7168-7.3145-7.3301-0.93753-0.15336-1.8811-0.17527-2.8125-0.0762zm50.77 65.158-3.7422 3.7422 1.8711 1.8711c1.7537 1.7537 2.5149 4.0998 2.2344 5.8145-0.28042 1.7147-1.234 2.668-2.9512 2.9453h-2e-3c-1.717 0.27749-4.0632-0.48798-5.8145-2.2441l-1.8691-1.873-3.7461 3.7363 1.8672 1.873c2.8178 2.8257 6.6567 4.3387 10.408 3.7324 3.7519-0.60604 6.7168-3.5662 7.3301-7.3164 0.61345-3.7501-0.89306-7.5884-3.7148-10.41zm-74.023 46.232-1.875 1.8672c-2.8257 2.8178-4.3368 6.6567-3.7305 10.408 0.60672 3.751 3.5649 6.7169 7.3145 7.3301 3.7501 0.61345 7.5884-0.89306 10.41-3.7148l1.8711-1.8711-3.7402-3.7422-1.8711 1.8711c-1.7537 1.7537-4.1017 2.5149-5.8164 2.2344-1.7147-0.28042-2.668-1.236-2.9453-2.9531-0.27749-1.717 0.48798-4.0632 2.2441-5.8144l1.875-1.8691zm-44.627-47.354-1.873 1.8691c-2.8257 2.8178-4.3387 6.6547-3.7324 10.406 0.60604 3.7519 3.5643 6.7168 7.3145 7.3301 3.7501 0.61345 7.5903-0.89306 10.412-3.7148l1.8711-1.8711-3.7422-3.7422-1.8711 1.8711c-1.7537 1.7537-4.1017 2.5149-5.8164 2.2344-1.7147-0.28042-2.668-1.234-2.9453-2.9512-0.27749-1.717 0.48993-4.0652 2.2461-5.8164l1.873-1.8672zm50.238-63.762c-0.93136-0.1007-1.8746-0.0813-2.8125 0.0703-3.7519 0.60604-6.7188 3.5643-7.332 7.3144-0.61345 3.7501 0.89501 7.5903 3.7168 10.412l1.8691 1.8711 3.7422-3.7422-1.8711-1.8711c-1.7537-1.7537-2.5149-4.1018-2.2344-5.8164 0.28042-1.7147 1.236-2.668 2.9531-2.9453 1.717-0.27749 4.0632 0.48993 5.8145 2.2461l1.8691 1.873 3.7461-3.7363-1.8672-1.873c-2.1134-2.1193-4.7997-3.5006-7.5938-3.8027zm64.189 45.764c-2.7942 0.2973-5.4833 1.6747-7.5996 3.791l-1.8711 1.8711 3.7422 3.7422 1.8711-1.8711c1.7537-1.7537 4.0998-2.5149 5.8145-2.2344 1.7147 0.28042 2.668 1.234 2.9453 2.9512 0.27749 1.717-0.48798 4.0652-2.2441 5.8164l-1.873 1.8672 3.7363 3.748 1.873-1.8691c2.8257-2.8178 4.3387-6.6547 3.7324-10.406-0.60594-3.7513-3.5652-6.7161-7.3145-7.3301h-2e-3c-0.93689-0.15307-1.8798-0.1752-2.8106-0.0762zm-41.85 65.402-3.7402 3.7402 1.8711 1.8711c1.7537 1.7537 2.5149 4.1018 2.2344 5.8164-0.28042 1.7147-1.236 2.668-2.9531 2.9453-1.717 0.27749-4.0651-0.48797-5.8164-2.2441l-1.8672-1.875-3.748 3.7363 1.8691 1.875c2.8178 2.8257 6.6547 4.3368 10.406 3.7305v2e-3c3.7519-0.60604 6.7187-3.5662 7.332-7.3164 0.61345-3.7501-0.89502-7.5884-3.7168-10.41z" fill="#030303" style="paint-order:markers fill stroke"/>
 </g>
</svg>
