<?xml version="1.0" encoding="UTF-8" standalone="no"?>
<!-- Created with Inkscape (http://www.inkscape.org/) -->

<svg
   xmlns:dc="http://purl.org/dc/elements/1.1/"
   xmlns:cc="http://creativecommons.org/ns#"
   xmlns:rdf="http://www.w3.org/1999/02/22-rdf-syntax-ns#"
   xmlns:svg="http://www.w3.org/2000/svg"
   xmlns="http://www.w3.org/2000/svg"
   xmlns:sodipodi="http://sodipodi.sourceforge.net/DTD/sodipodi-0.dtd"
   xmlns:inkscape="http://www.inkscape.org/namespaces/inkscape"
   width="500"
   height="500"
   viewBox="0 0 132.29166 132.29167"
   version="1.1"
   id="svg8"
   inkscape:export-filename="C:\Users\Tyler\Documents\GitHub\my-site\src\assets\purple-aether-icon.png"
   inkscape:export-xdpi="100"
   inkscape:export-ydpi="100"
   inkscape:version="0.92.1 r15371"
   sodipodi:docname="aether-icon-very-simple.svg">
  <defs
     id="defs2" />
  <sodipodi:namedview
     id="base"
     pagecolor="#ffffff"
     bordercolor="#666666"
     borderopacity="1.0"
     inkscape:pageopacity="0.0"
     inkscape:pageshadow="2"
     inkscape:zoom="1.4"
     inkscape:cx="238.48616"
     inkscape:cy="104.36712"
     inkscape:document-units="mm"
     inkscape:current-layer="layer1"
     showgrid="false"
     units="px"
     inkscape:snap-global="false"
     inkscape:window-width="2560"
     inkscape:window-height="1377"
     inkscape:window-x="-8"
     inkscape:window-y="-8"
     inkscape:window-maximized="1"
     inkscape:measure-start="20,250"
     inkscape:measure-end="134.286,137.143" />
  <metadata
     id="metadata5">
    <rdf:RDF>
      <cc:Work
         rdf:about="">
        <dc:format>image/svg+xml</dc:format>
        <dc:type
           rdf:resource="http://purl.org/dc/dcmitype/StillImage" />
        <dc:title></dc:title>
      </cc:Work>
    </rdf:RDF>
  </metadata>
  <g
     inkscape:label="Aether Icon"
     inkscape:groupmode="layer"
     id="layer1"
     transform="translate(0,-164.70832)">
    <path
       style="opacity:1;fill:#000000;fill-opacity:1;stroke:none;stroke-width:10;stroke-linecap:round;stroke-linejoin:miter;stroke-miterlimit:4;stroke-dasharray:none;stroke-dashoffset:0;stroke-opacity:1;paint-order:markers fill stroke"
       d="M 248.03125,21.703125 141.64648,128.08789 80.402344,66.550781 100.49023,46.507812 69.998047,43.035156 39.505859,39.560547 l 3.375,30.533203 3.373047,30.5332 19.992188,-19.949216 61.261716,61.548826 -107.419919,107.41992 7.068359,7.06641 98.70703,98.70703 -60.333983,60.04688 -20.042969,-20.08789 -3.472656,30.49218 -3.47461,30.49024 30.533204,-3.37305 30.533203,-3.37305 -19.949219,-19.99414 60.3457,-60.0625 108.0293,108.0293 104.11914,-104.11914 60.86523,61.15625 -20.08789,20.04297 30.49219,3.47461 30.49219,3.47461 -3.375,-30.53516 -3.37109,-30.5332 L 427.17188,420.5 366.29102,359.32812 475.97266,249.64648 369.81641,143.49023 l 61.64453,-61.351558 20.04297,20.087888 3.47265,-30.492185 3.47461,-30.492187 -30.5332,3.375 -30.5332,3.371093 19.94921,19.994141 -61.65625,61.369138 z m 9.7207,38.001953 180.17969,180.179692 -126.05273,-0.19336 0.0312,-28.37696 -24.01758,19.10547 -24.01563,19.10352 23.97657,19.20312 23.9746,19.20703 0.0313,-28.24414 125.5996,0.19141 -179.90625,179.90625 0.17969,-117.37891 28.37696,0.0312 -19.10547,-24.01757 -19.10352,-24.01758 -19.20508,23.97656 -19.20508,23.97461 28.24415,0.0312 -0.17774,116.44726 -179.115234,-179.11523 125.580074,0.19336 -0.0312,28.37695 24.01758,-19.10547 24.01758,-19.10351 -23.97656,-19.20508 -23.97461,-19.20508 -0.0312,28.24414 -125.750001,-0.1914 179.462891,-179.462894 0.19141,125.597654 -28.24415,0.0293 19.20508,23.97461 19.20508,23.97656 19.10352,-24.01367 19.10547,-24.01758 -28.37696,0.0293 z"
       transform="matrix(0.26458333,0,0,0.26458333,0.52151783,164.80166)"
       id="path4527"
       inkscape:connector-curvature="0"
       inkscape:label="aether-icon-very-simple" />
  </g>
</svg>
