<?xml version="1.0" encoding="UTF-8" standalone="no"?>
<!-- Created with Inkscape (http://www.inkscape.org/) -->

<svg
   xmlns:dc="http://purl.org/dc/elements/1.1/"
   xmlns:cc="http://creativecommons.org/ns#"
   xmlns:rdf="http://www.w3.org/1999/02/22-rdf-syntax-ns#"
   xmlns:svg="http://www.w3.org/2000/svg"
   xmlns="http://www.w3.org/2000/svg"
   xmlns:sodipodi="http://sodipodi.sourceforge.net/DTD/sodipodi-0.dtd"
   xmlns:inkscape="http://www.inkscape.org/namespaces/inkscape"
   width="156"
   height="138"
   viewBox="0 0 41.274999 36.512501"
   version="1.1"
   id="svg8"
   inkscape:version="0.92.1 r15371"
   sodipodi:docname="js-icon.svg">
  <defs
     id="defs2">
    <inkscape:perspective
       sodipodi:type="inkscape:persp3d"
       inkscape:vp_x="24.789248 : 16.762093 : 1"
       inkscape:vp_y="0 : 1000 : 0"
       inkscape:vp_z="68.53649 : 16.227554 : 1"
       inkscape:persp3d-origin="43.422227 : -5.6855247 : 1"
       id="perspective4485" />
  </defs>
  <sodipodi:namedview
     id="base"
     pagecolor="#ffffff"
     bordercolor="#666666"
     borderopacity="1.0"
     inkscape:pageopacity="0.0"
     inkscape:pageshadow="2"
     inkscape:zoom="2.8284271"
     inkscape:cx="-182.16789"
     inkscape:cy="61.026022"
     inkscape:document-units="mm"
     inkscape:current-layer="layer1"
     showgrid="false"
     units="px"
     inkscape:window-width="2560"
     inkscape:window-height="1377"
     inkscape:window-x="-8"
     inkscape:window-y="-8"
     inkscape:window-maximized="1"
     inkscape:snap-global="true" />
  <metadata
     id="metadata5">
    <rdf:RDF>
      <cc:Work
         rdf:about="">
        <dc:format>image/svg+xml</dc:format>
        <dc:type
           rdf:resource="http://purl.org/dc/dcmitype/StillImage" />
        <dc:title></dc:title>
      </cc:Work>
    </rdf:RDF>
  </metadata>
  <g
     inkscape:label="Layer 1"
     inkscape:groupmode="layer"
     id="layer1"
     transform="translate(0,-260.48748)"
     style="display:inline">
    <g
       id="g5174"
       transform="translate(-0.42039328,1.3975899)">
      <path
         sodipodi:nodetypes="ccccccccccccccccccccccssccscscc"
         inkscape:connector-curvature="0"
         id="path5128"
         transform="matrix(0.26458333,0,0,0.26458333,0,260.48748)"
         d="m 79.699219,-5.3671875 -64.1875,34.3730465 -0.113281,69.060547 17.324218,9.392574 5.376953,2.91016 4.736329,-10.705078 -3.876954,-2.228515 -11.121093,-6.025391 0.08984,-55.683594 51.753907,-27.710937 51.664062,27.966797 -0.0898,55.683594 -51.679691,27.671874 -8.507813,-4.83398 -5.550781,-3.15039 -14.248047,5.67578 13.339844,7.36328 14.792969,8.41015 64.269539,-34.410152 0.10742,-69.066406 z M 54.25,35.955525 v 57.556641 c 0,3.207898 -1.836985,7.018534 -6.284123,7.563084 -1.20734,0.14784 -3.577351,-0.3955 -5.129939,-1.411188 l -4.736329,10.705078 c 3.520028,1.66965 6.442233,1.89652 9.445313,1.89652 6.723681,0 11.414636,-2.83525 14.949219,-7.42386 3.561156,-4.58862 4.591797,-10.858706 4.591797,-19.496097 V 35.955525 Z"
         style="color:#000000;font-style:normal;font-variant:normal;font-weight:normal;font-stretch:normal;font-size:medium;line-height:normal;font-family:sans-serif;font-variant-ligatures:normal;font-variant-position:normal;font-variant-caps:normal;font-variant-numeric:normal;font-variant-alternates:normal;font-feature-settings:normal;text-indent:0;text-align:start;text-decoration:none;text-decoration-line:none;text-decoration-style:solid;text-decoration-color:#000000;letter-spacing:normal;word-spacing:normal;text-transform:none;writing-mode:lr-tb;direction:ltr;text-orientation:mixed;dominant-baseline:auto;baseline-shift:baseline;text-anchor:start;white-space:normal;shape-padding:0;clip-rule:nonzero;display:inline;overflow:visible;visibility:visible;opacity:1;isolation:auto;mix-blend-mode:normal;color-interpolation:sRGB;color-interpolation-filters:linearRGB;solid-color:#000000;solid-opacity:1;vector-effect:none;fill:#0f0000;fill-opacity:1;fill-rule:nonzero;stroke:none;stroke-width:12.00000095;stroke-linecap:square;stroke-linejoin:miter;stroke-miterlimit:4;stroke-dasharray:none;stroke-dashoffset:0;stroke-opacity:1;paint-order:markers fill stroke;color-rendering:auto;image-rendering:auto;shape-rendering:auto;text-rendering:auto;enable-background:accumulate" />
      <g
         id="flowRoot5130"
         style="font-style:normal;font-weight:normal;font-size:40px;line-height:1.25;font-family:sans-serif;text-align:center;letter-spacing:0px;word-spacing:0px;text-anchor:middle;fill:#000000;fill-opacity:1;stroke:none;stroke-width:0.4612118"
         transform="matrix(0.54002066,0,0,0.60941588,109.10107,257.01276)"
         aria-label="JS" />
      <path
         sodipodi:nodetypes="cscsccssscccccsccccsscsccccc"
         inkscape:connector-curvature="0"
         id="path5167"
         d="m 25.892578,269.92578 c -1.637191,0.0111 -3.255927,0.37068 -4.611328,1.14453 -1.355401,0.77385 -2.544327,2.16082 -2.539062,3.92578 0.0026,0.85923 0.432561,1.67024 0.960937,2.18555 0.528376,0.51531 1.131561,0.83177 1.765625,1.09375 1.268128,0.52395 3.048511,0.67582 4.456311,0.95734 1.4078,0.28151 2.543664,0.29668 3.266554,0.85461 0.644806,0.49766 0.207568,1.33364 -0.08804,1.51309 -0.650164,0.39469 -2.071403,0.55014 -3.244202,0.59684 -1.172799,0.0467 -2.312947,-0.195 -3.001953,-0.59961 -0.689006,-0.40462 -0.982445,-0.77105 -0.984375,-1.65625 l -3.173828,0.006 c 0.0042,1.94028 1.123985,3.54998 2.548828,4.38671 1.424843,0.83674 3.100373,1.10037 4.738281,1.03516 1.637908,-0.0652 3.251691,-0.46352 4.597656,-1.25586 1.345966,-0.79234 2.53307,-2.17281 2.509766,-3.9375 -0.01169,-0.88509 -0.550312,-1.65814 -1.09375,-2.08594 -0.543438,-0.42779 -1.123501,-0.66842 -1.740234,-0.8789 -1.233467,-0.42097 -2.657995,-0.67501 -4.039063,-0.95117 -1.381068,-0.27617 -2.819207,-0.39354 -3.539062,-0.91797 -0.736897,-0.53685 -0.337559,-1.21906 0.173828,-1.51368 0.733895,-0.42281 1.906335,-0.71878 3.058593,-0.72656 1.152259,-0.008 2.267421,0.27606 2.955079,0.72461 0.687657,0.44855 1.017042,0.89859 1.013671,1.87305 l 3.175782,0.0117 c 0.0068,-1.97619 -1.053669,-3.63081 -2.455078,-4.54492 -1.401409,-0.91412 -3.073747,-1.25128 -4.710938,-1.24024 z"
         style="color:#000000;font-style:normal;font-variant:normal;font-weight:normal;font-stretch:normal;font-size:medium;line-height:normal;font-family:sans-serif;font-variant-ligatures:normal;font-variant-position:normal;font-variant-caps:normal;font-variant-numeric:normal;font-variant-alternates:normal;font-feature-settings:normal;text-indent:0;text-align:start;text-decoration:none;text-decoration-line:none;text-decoration-style:solid;text-decoration-color:#000000;letter-spacing:normal;word-spacing:normal;text-transform:none;writing-mode:lr-tb;direction:ltr;text-orientation:mixed;dominant-baseline:auto;baseline-shift:baseline;text-anchor:start;white-space:normal;shape-padding:0;clip-rule:nonzero;display:inline;overflow:visible;visibility:visible;opacity:1;isolation:auto;mix-blend-mode:normal;color-interpolation:sRGB;color-interpolation-filters:linearRGB;solid-color:#000000;solid-opacity:1;vector-effect:none;fill:#000000;fill-opacity:1;fill-rule:nonzero;stroke:none;stroke-width:3.17499995;stroke-linecap:butt;stroke-linejoin:miter;stroke-miterlimit:4;stroke-dasharray:none;stroke-dashoffset:0;stroke-opacity:1;color-rendering:auto;image-rendering:auto;shape-rendering:auto;text-rendering:auto;enable-background:accumulate" />
    </g>
  </g>
</svg>
